<svg id="Calque_1" data-name="Calque 1" xmlns="http://www.w3.org/2000/svg" xmlns:xlink="http://www.w3.org/1999/xlink" viewBox="0 0 1350 100"><defs><linearGradient id="Dégradé_sans_nom_100" x1="297.72" y1="33.17" x2="317.22" y2="45.08" gradientUnits="userSpaceOnUse"><stop offset="0"/><stop offset="0.23" stop-color="#17191c"/><stop offset="0.29" stop-color="#1d1f22"/><stop offset="0.53" stop-color="#323234"/><stop offset="0.77" stop-color="#3e3e3e"/><stop offset="1" stop-color="#424242"/></linearGradient><linearGradient id="Dégradé_sans_nom_99" x1="82.86" y1="13.49" x2="116.72" y2="41.34" gradientUnits="userSpaceOnUse"><stop offset="0"/><stop offset="0.01" stop-color="#010101"/><stop offset="0.26" stop-color="#1d1d1d"/><stop offset="0.51" stop-color="#323232"/><stop offset="0.76" stop-color="#3e3e3e"/><stop offset="1" stop-color="#424242"/></linearGradient><linearGradient id="Dégradé_sans_nom_99-2" x1="221.52" y1="13.49" x2="255.38" y2="41.34" xlink:href="#Dégradé_sans_nom_99"/><linearGradient id="Dégradé_sans_nom_98" x1="162.7" y1="27.18" x2="179.09" y2="38.17" gradientUnits="userSpaceOnUse"><stop offset="0"/><stop offset="0.4" stop-color="#212121"/><stop offset="0.77" stop-color="#393939"/><stop offset="1" stop-color="#424242"/></linearGradient></defs><title>WWD_Black</title><path d="M549.33,14.06,527.52,79.87h-13l-16.27-48.7-16.54,48.7H468.66L446.85,14.06h12.7l16.35,50,17-50h11.29l16.64,50.3,16.82-50.3Z" style="fill:#424242"/><path d="M555.82,29.66h11.75V79.87H555.82Z" style="fill:#3f3f3f"/><path d="M580.17,10.11h11.76V79.87H580.17Z" style="fill:#3f3f3f"/><path d="M653.7,10.11V79.87H642.41V73.38a18.08,18.08,0,0,1-7.19,5.36,24.29,24.29,0,0,1-9.45,1.79,26.44,26.44,0,0,1-13-3.2,22.94,22.94,0,0,1-9.07-9.07,27.1,27.1,0,0,1-3.3-13.49,26.84,26.84,0,0,1,3.3-13.45,23,23,0,0,1,9.07-9,26.44,26.44,0,0,1,13-3.2,23.85,23.85,0,0,1,9.12,1.69,18.29,18.29,0,0,1,7.05,5.08V10.11ZM634.8,68.54a14,14,0,0,0,5.36-5.5,16.88,16.88,0,0,0,2-8.27,16.9,16.9,0,0,0-2-8.28A14,14,0,0,0,634.8,41a16.08,16.08,0,0,0-15.24,0,14,14,0,0,0-5.35,5.5,16.79,16.79,0,0,0-2,8.28,16.78,16.78,0,0,0,2,8.27,13.89,13.89,0,0,0,5.35,5.5,16,16,0,0,0,15.24,0Z" style="fill:#3f3f3f"/><path d="M777.36,14.06,755.55,79.87h-13l-16.27-48.7-16.54,48.7H696.69L674.88,14.06h12.7l16.36,50,17-50h11.29l16.64,50.3,16.83-50.3Z" style="fill:#3f3f3f"/><path d="M826.63,58.53H787.24a13.65,13.65,0,0,0,5.41,8.79,17.72,17.72,0,0,0,10.86,3.24,18.32,18.32,0,0,0,13.63-5.45l6.3,7.24a21.3,21.3,0,0,1-8.56,6.11,33.89,33.89,0,0,1-26.23-1.22,23.74,23.74,0,0,1-9.73-9.17,25.86,25.86,0,0,1-3.43-13.3,26.2,26.2,0,0,1,3.34-13.21,23.66,23.66,0,0,1,9.26-9.17,27.07,27.07,0,0,1,13.35-3.29,26.33,26.33,0,0,1,13.11,3.24,23,23,0,0,1,9,9.12,27.7,27.7,0,0,1,3.24,13.59C826.82,55.86,826.76,57,826.63,58.53ZM791.89,41.84a14,14,0,0,0-4.74,8.88h28.48a13.87,13.87,0,0,0-4.6-8.84,14,14,0,0,0-9.59-3.38A14.19,14.19,0,0,0,791.89,41.84Z" style="fill:#3f3f3f"/><path d="M876.23,32.3a23,23,0,0,1,9.07,9,26.94,26.94,0,0,1,3.29,13.45,27.2,27.2,0,0,1-3.29,13.49,22.94,22.94,0,0,1-9.07,9.07,26.69,26.69,0,0,1-13.12,3.2,24.33,24.33,0,0,1-9.45-1.79,18.08,18.08,0,0,1-7.19-5.36v6.49H835.28V10.11H847V35.77a19.77,19.77,0,0,1,7.09-5,23.24,23.24,0,0,1,9-1.69A26.69,26.69,0,0,1,876.23,32.3Zm-3.76,33.84q4.18-4.32,4.18-11.37t-4.18-11.38a14.22,14.22,0,0,0-10.67-4.32A15.16,15.16,0,0,0,854.18,41a14,14,0,0,0-5.36,5.5,16.9,16.9,0,0,0-2,8.28,16.88,16.88,0,0,0,2,8.27,13.91,13.91,0,0,0,5.36,5.5,15.07,15.07,0,0,0,7.62,1.93A14.19,14.19,0,0,0,872.47,66.14Z" style="fill:#3f3f3f"/><rect x="555.8" y="10.11" width="11.76" height="11.4" style="fill:#3f3f3f"/><path d="M910.28,14.55h25.87a37.88,37.88,0,0,1,18.07,4.2A30.73,30.73,0,0,1,966.5,30.38a32.45,32.45,0,0,1,4.39,16.85,32.46,32.46,0,0,1-4.39,16.86,30.8,30.8,0,0,1-12.28,11.63,37.88,37.88,0,0,1-18.07,4.2H910.28Zm25.5,61.07a34.11,34.11,0,0,0,16-3.59,25.8,25.8,0,0,0,10.64-10,28.89,28.89,0,0,0,3.74-14.76,28.85,28.85,0,0,0-3.74-14.75,25.73,25.73,0,0,0-10.64-10,34.11,34.11,0,0,0-16-3.6H915V75.62Z" style="fill:#3f3f3f"/><path d="M1025.23,56.67H983.3a20.31,20.31,0,0,0,2.9,10.13,18.55,18.55,0,0,0,7.33,6.86,23.44,23.44,0,0,0,19.23.7,17.13,17.13,0,0,0,6.77-5.09l2.71,3.09a20.81,20.81,0,0,1-8,5.88,27.87,27.87,0,0,1-23.4-1.12A23.06,23.06,0,0,1,982,68.34a25.19,25.19,0,0,1-3.22-12.79,26.54,26.54,0,0,1,3-12.75A22.37,22.37,0,0,1,990.12,34a24.17,24.17,0,0,1,23.86,0,22.19,22.19,0,0,1,8.31,8.73,26.26,26.26,0,0,1,3,12.7Zm-32.4-19.48a17.5,17.5,0,0,0-6.59,6.45A21,21,0,0,0,983.39,53h37.36a19.59,19.59,0,0,0-2.8-9.33,18.29,18.29,0,0,0-6.63-6.45,18.48,18.48,0,0,0-9.25-2.33A18.7,18.7,0,0,0,992.83,37.19Z" style="fill:#3f3f3f"/><path d="M1076.72,31.17l-22,48.75h-4.77L1028,31.17h5l19.42,43.61L1072,31.17Z" style="fill:#3f3f3f"/><path d="M1125.85,56.67h-41.93a20.41,20.41,0,0,0,2.9,10.13,18.55,18.55,0,0,0,7.33,6.86,23.46,23.46,0,0,0,19.24.7,17.27,17.27,0,0,0,6.77-5.09l2.7,3.09a20.73,20.73,0,0,1-8,5.88,27.85,27.85,0,0,1-23.39-1.12,23.09,23.09,0,0,1-8.92-8.78,25.19,25.19,0,0,1-3.22-12.79,26.54,26.54,0,0,1,3-12.75,22.37,22.37,0,0,1,8.36-8.83,24.17,24.17,0,0,1,23.86,0,22.12,22.12,0,0,1,8.31,8.73,26.26,26.26,0,0,1,3,12.7Zm-32.4-19.48a17.4,17.4,0,0,0-6.58,6.45A20.75,20.75,0,0,0,1084,53h37.35a19.59,19.59,0,0,0-2.8-9.33,18.11,18.11,0,0,0-15.88-8.78A18.72,18.72,0,0,0,1093.45,37.19Z" style="fill:#3f3f3f"/><path d="M1137.56,10.63h4.67V79.92h-4.67Z" style="fill:#3f3f3f"/><path d="M1164.7,77.12a22.8,22.8,0,0,1-8.73-8.83,25.49,25.49,0,0,1-3.18-12.74A25.53,25.53,0,0,1,1156,42.8,22.8,22.8,0,0,1,1164.7,34a26.09,26.09,0,0,1,24.93,0,22.8,22.8,0,0,1,8.73,8.83,25.53,25.53,0,0,1,3.18,12.75,25.49,25.49,0,0,1-3.18,12.74,22.8,22.8,0,0,1-8.73,8.83,26.09,26.09,0,0,1-24.93,0Zm22.5-3.64a18.84,18.84,0,0,0,7-7.29,21.73,21.73,0,0,0,2.57-10.64,21.74,21.74,0,0,0-2.57-10.65,18.84,18.84,0,0,0-7-7.29,20.6,20.6,0,0,0-20.07,0,18.84,18.84,0,0,0-7,7.29,21.74,21.74,0,0,0-2.56,10.65,21.72,21.72,0,0,0,2.56,10.64,18.84,18.84,0,0,0,7,7.29,20.6,20.6,0,0,0,20.07,0Z" style="fill:#3f3f3f"/><path d="M1248.32,34a22.85,22.85,0,0,1,8.64,8.78,25.77,25.77,0,0,1,3.13,12.8A26,26,0,0,1,1257,68.39a22.35,22.35,0,0,1-8.64,8.77A24.46,24.46,0,0,1,1236,80.29a22.88,22.88,0,0,1-11.68-3,21,21,0,0,1-8.12-8.45V98h-4.67V31.17H1216V42.66a21.19,21.19,0,0,1,8.17-8.73A22.71,22.71,0,0,1,1236,30.8,24.28,24.28,0,0,1,1248.32,34Zm-2.52,39.51a18.73,18.73,0,0,0,7-7.29,21.73,21.73,0,0,0,2.57-10.64,21.74,21.74,0,0,0-2.57-10.65,18.73,18.73,0,0,0-7-7.29A19.68,19.68,0,0,0,1235.71,35a19.38,19.38,0,0,0-10,2.61,18.84,18.84,0,0,0-7,7.29,21.74,21.74,0,0,0-2.57,10.65,21.73,21.73,0,0,0,2.57,10.64,18.84,18.84,0,0,0,7,7.29,19.38,19.38,0,0,0,10,2.61A19.68,19.68,0,0,0,1245.8,73.48Z" style="fill:#3f3f3f"/><path d="M1315.23,56.67H1273.3a20.4,20.4,0,0,0,2.89,10.13,18.61,18.61,0,0,0,7.33,6.86,23.46,23.46,0,0,0,19.24.7,17.13,17.13,0,0,0,6.77-5.09l2.71,3.09a20.84,20.84,0,0,1-8,5.88,27.85,27.85,0,0,1-23.39-1.12,23.09,23.09,0,0,1-8.92-8.78,25.29,25.29,0,0,1-3.22-12.79,26.43,26.43,0,0,1,3-12.75,22.37,22.37,0,0,1,8.36-8.83,24.17,24.17,0,0,1,23.86,0,22.26,22.26,0,0,1,8.31,8.73,26.26,26.26,0,0,1,3,12.7Zm-32.41-19.48a17.47,17.47,0,0,0-6.58,6.45,21,21,0,0,0-2.85,9.38h37.35a19.48,19.48,0,0,0-2.8-9.33,18.1,18.1,0,0,0-15.87-8.78A18.73,18.73,0,0,0,1282.82,37.19Z" style="fill:#3f3f3f"/><path d="M1336.57,33.65a22.17,22.17,0,0,1,11.58-2.85v4.57l-1.12-.09q-8.13,0-12.7,5.09t-4.58,14.15v25.4h-4.67V31.17h4.49V41.82A16.86,16.86,0,0,1,1336.57,33.65Z" style="fill:#3f3f3f"/><polygon points="323.8 11.9 323.8 11.9 323.8 11.9 323.8 11.9" style="fill:#fff"/><path d="M344.2,26.28H331.34l-9.43,47.43h15.72q13,0,20.22-8.21t7.21-21.07q0-8.72-5.36-13.43T344.2,26.28Z" style="fill:none"/><path d="M419.12,19.86A39.48,39.48,0,0,0,401.47,5.15a55.35,55.35,0,0,0-12.16-3.76A45.59,45.59,0,0,1,400.09,13q7.55,11.76,7.54,27.71,0,21.21-9.82,37.25a64.5,64.5,0,0,1-20.25,20.71A66.08,66.08,0,0,0,395,92.94,53.26,53.26,0,0,0,417.26,72.8q8-13.08,8-30.36Q425.26,29.44,419.12,19.86Z" style="fill:#f29021"/><path d="M392.92,19.86A39.47,39.47,0,0,0,375.28,5.14Q363.78,0,348.06,0H319.27L292.69,51.13,282.91,100h53.58q18.13,0,32.36-7.07a53.24,53.24,0,0,0,22.21-20.14q8-13.08,8-30.36Q399.07,29.42,392.92,19.86ZM357.85,65.5q-7.22,8.22-20.22,8.21H321.91l9.43-47.43H344.2q10.14,0,15.5,4.72t5.36,13.43Q365.06,57.29,357.85,65.5Z" style="fill:url(#Dégradé_sans_nom_100)"/><polygon points="71.28 0 41.57 57 35.14 0 1.85 0 13.85 100 49.99 100 77.43 47.28 102.29 0 71.28 0" style="fill:#424242"/><polygon points="138.18 0 108.03 57.86 102.32 0 77.46 47.28 80.32 73.67 83.17 100 119.32 100 171.32 0 138.18 0" style="fill:url(#Dégradé_sans_nom_99)"/><polygon points="276.83 0 246.69 57.86 240.97 0 216.13 47.45 218.98 73.67 221.83 100 257.98 100 309.98 0 276.83 0" style="fill:url(#Dégradé_sans_nom_99-2)"/><polygon points="209.91 0 180.19 57 174.98 10.74 147.99 62.63 152.48 100 188.62 100 240.97 0 209.91 0" style="fill:url(#Dégradé_sans_nom_98)"/></svg>