<svg id="Calque_1" data-name="Calque 1" xmlns="http://www.w3.org/2000/svg" xmlns:xlink="http://www.w3.org/1999/xlink" viewBox="0 0 423.38 100"><defs><linearGradient id="Dégradé_sans_nom_57" x1="296.66" y1="33.17" x2="316.15" y2="45.08" gradientUnits="userSpaceOnUse"><stop offset="0" stop-color="#9c9b9b"/><stop offset="0.14" stop-color="#b2b1b1"/><stop offset="0.35" stop-color="#cecdcd"/><stop offset="0.57" stop-color="#e2e2e2"/><stop offset="0.79" stop-color="#eee"/><stop offset="1" stop-color="#f2f2f2"/></linearGradient><linearGradient id="Dégradé_sans_nom_57-2" x1="81" y1="13.49" x2="114.86" y2="41.34" xlink:href="#Dégradé_sans_nom_57"/><linearGradient id="Dégradé_sans_nom_57-3" x1="219.65" y1="13.49" x2="253.51" y2="41.34" xlink:href="#Dégradé_sans_nom_57"/><linearGradient id="Dégradé_sans_nom_51" x1="160.83" y1="27.18" x2="177.23" y2="38.18" gradientUnits="userSpaceOnUse"><stop offset="0" stop-color="#9c9b9b"/><stop offset="0.12" stop-color="#aaa9a9"/><stop offset="0.51" stop-color="#d1d1d1"/><stop offset="0.81" stop-color="#e9e9e9"/><stop offset="1" stop-color="#f2f2f2"/></linearGradient></defs><title>WWD_White_Initials</title><polygon points="321.93 11.9 321.93 11.9 321.93 11.9 321.93 11.9" style="fill:#fff"/><path d="M343.14,26.28H330.28l-9.43,47.43h15.71q13,0,20.22-8.21T364,44.43q0-8.72-5.35-13.43T343.14,26.28Z" transform="translate(-0.81)" style="fill:none"/><path d="M418.05,19.87A39.5,39.5,0,0,0,400.4,5.15a56.44,56.44,0,0,0-12.16-3.76A45.69,45.69,0,0,1,399,13q7.53,11.75,7.53,27.7,0,21.21-9.82,37.25a64.37,64.37,0,0,1-20.25,20.7A65.94,65.94,0,0,0,394,92.94a53.29,53.29,0,0,0,22.22-20.15q8-13.07,8-30.35Q424.19,29.44,418.05,19.87Z" transform="translate(-0.81)" style="fill:#f29021"/><path d="M391.85,19.86A39.48,39.48,0,0,0,374.21,5.14Q362.71,0,347,0H318.21L291.62,51.13,281.85,100h53.57q18.15,0,32.36-7.07A53.24,53.24,0,0,0,390,72.79q8-13.08,8-30.36Q398,29.42,391.85,19.86ZM356.78,65.5q-7.21,8.22-20.22,8.21H320.85l9.43-47.43h12.86q10.14,0,15.5,4.72T364,44.43Q364,57.29,356.78,65.5Z" transform="translate(-0.81)" style="fill:url(#Dégradé_sans_nom_57)"/><polygon points="69.43 0 39.71 57 33.29 0 0 0 12 100 48.14 100 75.57 47.28 100.43 0 69.43 0" style="fill:#f2f2f2"/><polygon points="136.31 0 106.17 57.86 100.46 0 75.6 47.28 78.46 73.67 81.32 100 117.46 100 169.46 0 136.31 0" style="fill:url(#Dégradé_sans_nom_57-2)"/><polygon points="274.96 0 244.82 57.86 239.11 0 214.27 47.45 217.11 73.67 219.96 100 256.11 100 308.11 0 274.96 0" style="fill:url(#Dégradé_sans_nom_57-3)"/><polygon points="208.04 0 178.33 57 173.11 10.74 146.13 62.63 150.62 100 186.76 100 239.11 0 208.04 0" style="fill:url(#Dégradé_sans_nom_51)"/></svg>