<svg id="Calque_1" data-name="Calque 1" xmlns="http://www.w3.org/2000/svg" xmlns:xlink="http://www.w3.org/1999/xlink" viewBox="0 0 427 100"><defs><linearGradient id="Dégradé_sans_nom_100" x1="297.66" y1="33.17" x2="317.16" y2="45.08" gradientUnits="userSpaceOnUse"><stop offset="0"/><stop offset="0.23" stop-color="#17191c"/><stop offset="0.29" stop-color="#1d1f22"/><stop offset="0.53" stop-color="#323234"/><stop offset="0.77" stop-color="#3e3e3e"/><stop offset="1" stop-color="#424242"/></linearGradient><linearGradient id="Dégradé_sans_nom_99" x1="82.8" y1="13.49" x2="116.66" y2="41.34" gradientUnits="userSpaceOnUse"><stop offset="0"/><stop offset="0.01" stop-color="#010101"/><stop offset="0.26" stop-color="#1d1d1d"/><stop offset="0.51" stop-color="#323232"/><stop offset="0.76" stop-color="#3e3e3e"/><stop offset="1" stop-color="#424242"/></linearGradient><linearGradient id="Dégradé_sans_nom_99-2" x1="221.46" y1="13.49" x2="255.32" y2="41.34" xlink:href="#Dégradé_sans_nom_99"/><linearGradient id="Dégradé_sans_nom_98" x1="162.64" y1="27.18" x2="179.03" y2="38.17" gradientUnits="userSpaceOnUse"><stop offset="0"/><stop offset="0.4" stop-color="#212121"/><stop offset="0.77" stop-color="#393939"/><stop offset="1" stop-color="#424242"/></linearGradient></defs><title>WWD_Black_Initials</title><polygon points="323.75 11.9 323.75 11.9 323.75 11.9 323.75 11.9" style="fill:#fff"/><path d="M344.15,26.28H331.29l-9.43,47.43h15.71q13,0,20.22-8.21T365,44.43q0-8.72-5.35-13.43T344.15,26.28Z" style="fill:none"/><path d="M419.06,19.86A39.46,39.46,0,0,0,401.42,5.15a55.44,55.44,0,0,0-12.17-3.76A45.45,45.45,0,0,1,400,13q7.53,11.76,7.54,27.71,0,21.21-9.82,37.25A64.43,64.43,0,0,1,377.5,98.68,66,66,0,0,0,395,92.94,53.24,53.24,0,0,0,417.2,72.8q8-13.08,8-30.36Q425.21,29.44,419.06,19.86Z" style="fill:#f29021"/><path d="M392.86,19.86A39.36,39.36,0,0,0,375.22,5.14Q363.72,0,348,0H319.22L292.63,51.13,282.86,100h53.57q18.15,0,32.36-7.07A53.26,53.26,0,0,0,391,72.79q8-13.08,8-30.36Q399,29.42,392.86,19.86ZM357.79,65.5q-7.21,8.22-20.22,8.21H321.86l9.43-47.43h12.86q10.14,0,15.5,4.72T365,44.43Q365,57.29,357.79,65.5Z" style="fill:url(#Dégradé_sans_nom_100)"/><polygon points="71.23 0 41.51 57 35.08 0 1.79 0 13.79 100 49.94 100 77.37 47.28 102.23 0 71.23 0" style="fill:#424242"/><polygon points="138.12 0 107.97 57.86 102.26 0 77.4 47.28 80.26 73.67 83.12 100 119.26 100 171.27 0 138.12 0" style="fill:url(#Dégradé_sans_nom_99)"/><polygon points="276.78 0 246.63 57.86 240.92 0 216.08 47.45 218.92 73.67 221.78 100 257.92 100 309.92 0 276.78 0" style="fill:url(#Dégradé_sans_nom_99-2)"/><polygon points="209.85 0 180.14 57 174.92 10.74 147.94 62.63 152.42 100 188.57 100 240.92 0 209.85 0" style="fill:url(#Dégradé_sans_nom_98)"/></svg>